# xmcd
#
# Track frame offsets: 
#        150
#        18148
#        33829
#        50036
#        68127
#        88166
#        106305
#        125061
#        143606
#        160757
#        176549
#        191362
#        213089
#        232216
#        249047
#        265606
#
# Disc length: 3820 seconds
#
# Revision: 0
# Processed by: cddbd v1.5.2PL0 Copyright (c) Steve Scherf et al.
# Submitted via: ExactAudioCopy v0.99pb3
#
DISCID=cf0eea10
DTITLE=รวมศิลปิน - รวมฮิตลูกทุ่งบันเทิง
DYEAR=2007
DGENRE=Country
TTITLE0=คิดฮอดสิอดเอา
TTITLE1=ในใจอยากได้สอง
TTITLE2=รักคนหน้าเหลี่ยม
TTITLE3=อวสานขาร็อค
TTITLE4=เต้ยโศก
TTITLE5=พี่แดงคนเดิม
TTITLE6=ปิดตำนานบักจอบหลอย
TTITLE7=มอเตอร์ไซด์ฮ่าง
TTITLE8=คิดนำเมียเผิ่น
TTITLE9=ระวังฟ้าเลือม
TTITLE10=มักสาวเอวยาว
TTITLE11=ฮักอ้ายหลายตายกะซาง
TTITLE12=รอเมียพี่เผลอ
TTITLE13=ชู้ในตู้ผ้า
TTITLE14=ผิดหวังซ้ำเฒ่า
TTITLE15=ลมส่าคนหลายใจ
EXTD=
EXTT0=
EXTT1=
EXTT2=
EXTT3=
EXTT4=
EXTT5=
EXTT6=
EXTT7=
EXTT8=
EXTT9=
EXTT10=
EXTT11=
EXTT12=
EXTT13=
EXTT14=
EXTT15=
PLAYORDER=
